# xmcd
#
# Track frame offsets:
#	150
#	20683
#	40873
#	60840
#	85258
#	108161
#	125792
#	146768
#	166511
#	188482
#	206560
#	221313
#
# Disc length: 3229 seconds
#
# Revision: 1
# Processed by: cddbd v1.4PL0 Copyright (c) Steve Scherf et al.
# Submitted via: audiograbber 1.80
#
DISCID=9a0c9b0c
DTITLE=Elton John - Songs from the West Coast
DYEAR=1900
DGENRE=
TTITLE0=The Emeror´s New Clothes
TTITLE1=Dark Diamond
TTITLE2=Look Ma, No Hands
TTITLE3=American Triangle
TTITLE4=Original Sin
TTITLE5=Birds
TTITLE6=I Want Love
TTITLE7=Wasteland
TTITLE8=Ballad Of The Boy With The Red Shoes
TTITLE9=Love Her Like ME
TTITLE10=Mansfield
TTITLE11=This Train Don´t Stop Here Anymore
EXTD=
EXTT0=
EXTT1=
EXTT2=
EXTT3=
EXTT4=
EXTT5=
EXTT6=
EXTT7=
EXTT8=
EXTT9=
EXTT10=
EXTT11=
PLAYORDER=
